<?xml version="1.0" encoding="UTF-8"?><svg id="a" xmlns="http://www.w3.org/2000/svg" width="512" height="512" viewBox="0 0 512 512"><defs><style>.b{opacity:.4;}.b,.c,.d,.e,.f,.g,.h{stroke-width:0px;}.d{opacity:.7;}.e{opacity:.2;}.f{opacity:.8;}.g{fill:#fff;}.h{opacity:.6;}</style></defs><polygon class="e" points="0 0 0 159.81 159.81 0 0 0"/><polygon class="b" points="160.89 0 159.81 0 0 159.81 0 160.89 0 337.3 337.3 0 160.89 0"/><polygon class="h" points="339.92 0 337.3 0 0 337.3 0 339.92 0 512 5.28 512 512 5.28 512 0 339.92 0"/><polygon class="d" points="5.41 512 184.17 512 512 184.17 512 5.41 512 5.28 5.28 512 5.41 512"/><polygon class="f" points="185.39 512 364.28 512 512 364.28 512 185.39 512 184.17 184.17 512 185.39 512"/><polygon class="c" points="512 512 512 364.39 364.39 512 512 512"/><path class="g" d="m367.7,311.73c0,61.93-49.08,112.39-111.01,112.39s-112.39-50.46-112.39-112.39v-.46h36.7c0,40.83,33.49,75.23,75.69,75.23s74.77-34.4,74.77-75.23-32.57-73.86-73.85-74.31v-37.16c61.47.46,110.09,50.46,110.09,111.93h0Zm-5.5-149.54h-40.37c-12.84-22.02-37.16-37.62-64.22-37.62-41.74,0-75.69,34.86-75.69,76.15s33.03,73.86,74.77,74.31v37.16c-62.39,0-111.47-50.92-111.47-111.93s49.54-112.39,112.39-112.39c49.08,0,89.45,30.27,104.59,74.31h0Z"/></svg>